<?xml version="1.0" encoding="utf-8"?>
<!-- Generator: Adobe Illustrator 20.1.0, SVG Export Plug-In . SVG Version: 6.00 Build 0)  -->
<svg version="1.1" id="Layer_1" xmlns="http://www.w3.org/2000/svg" xmlns:xlink="http://www.w3.org/1999/xlink" x="0px" y="0px"
	 viewBox="0 0 304.3 80.3" style="enable-background:new 0 0 304.3 80.3;" xml:space="preserve">
<style type="text/css">
	.st0{fill:#E22F26;}
</style>
<g>
	<path class="st0" d="M31.5,62.8v-3.5c-2.7,2.4-7.5,4.2-13.3,4.2C0.5,63.6,0,51.7,0,40.9c0-13.2,2.5-22.8,17.1-22.8
		c4.8,0,10,0.5,13.3,4V0h10.2v62.8H31.5z M19.4,27.5c-7.6,0-9.2,3.2-9.2,13.4s1.6,13.4,9.2,13.4c8.7,0,11.3-2.4,11.3-13.4
		C30.6,29.9,28.1,27.5,19.4,27.5z"/>
	<path class="st0" d="M53.5,13.2c-3.6,0-5.6-2.1-5.6-5.6c0-3.6,2.1-5.5,5.6-5.5s5.6,1.9,5.6,5.5C59.1,11.1,57.1,13.2,53.5,13.2z
		 M48.4,62.8v-44h10.2v44H48.4z"/>
	<path class="st0" d="M105.2,67.7C103.6,78.2,93,80.3,84.9,80.3C76,80.3,66,77.6,66,66.4h10.1c0,3.2,2.8,5.2,8.5,5.2
		c5.9,0,10.1-1.8,10.6-5.9c0.3-2.3,0.2-4.5,0.2-6.8c-3.2,2.9-8.4,3.9-12.6,3.9c-16.7,0-17.7-11.7-17.7-22.3
		c0-13.3,2.4-22.4,17.6-22.4c4.7,0,10.3,1.2,13.7,4.2v-3.5h9.2v39.3C105.6,62.2,105.6,65.3,105.2,67.7z M84.4,27.1
		c-7.6,0-9.1,3.2-9.1,13.4s1.5,13.1,9.1,13.1c8.7,0,11.1-2.1,11.1-13.1S93.2,27.1,84.4,27.1z"/>
	<path class="st0" d="M118.4,13.2c-3.6,0-5.6-2.1-5.6-5.6c0-3.6,2.1-5.5,5.6-5.5S124,4,124,7.6C124,11.1,122,13.2,118.4,13.2z
		 M113.4,62.8v-44h10.2v44H113.4z"/>
	<path class="st0" d="M153.1,63.6c-4.8,0-8.6-0.7-11.5-3.9v20.4h-10.2V18.8h9.2v3.5c3.7-3.2,9-4.3,13.7-4.2
		C169.9,18.3,172,27,172,40.9C172,51.6,170.1,63.6,153.1,63.6z M152.6,27.1c-8.7,0-11.2,2.8-11.2,13.8c0,11,2.4,13.6,11.2,13.6
		c7.6,0,9.2-3.3,9.2-13.6S160.2,27.1,152.6,27.1z"/>
	<path class="st0" d="M214.4,58.6c-3.8,3.7-9.2,5-16.2,5c-7.1,0-12.4-1.3-16.2-5c-3.9-3.7-4.7-9.4-4.7-17.8c0-8.4,0.8-14.1,4.7-17.8
		c3.8-3.7,9.1-5,16.2-5c7,0,12.4,1.3,16.2,5c3.9,3.7,4.7,9.4,4.7,17.8C219.1,49.2,218.3,54.9,214.4,58.6z M198.2,27.1
		c-9.8,0-10.7,3.8-10.7,13.7s0.9,13.7,10.7,13.7s10.7-3.8,10.7-13.7S208,27.1,198.2,27.1z"/>
	<path class="st0" d="M253.4,32c0-4.2-2.2-5.5-8.1-5.7c-8.7-0.3-10.2,1.8-10.3,4.7c-0.2,5,2.7,5,7.1,5.2
		c10.1,0.6,20.6-0.2,20.4,13.9c-0.2,10.8-8.6,13.6-20.4,13.4c-11.1-0.2-18.3-3.1-18.3-13.9h9.4c0,3.8,1.6,5.6,8.8,5.8
		c8.7,0.3,10.3-1.7,10.4-4.9c0.2-5.2-2.9-5.3-7.9-5.6c-9.8-0.5-19.9-0.2-19.7-13.7c0.2-10.9,8.7-13.3,20.4-13.2
		c10.9,0.2,17.6,3.4,17.6,13.9L253.4,32L253.4,32z"/>
	<path class="st0" d="M287.9,63.6c-10.2,0-16-4.4-16-14.2v-22h-7v-8.5h7V2.7H282v16.1H300v8.5H282v22c0,4.1,1.4,5.9,6.4,5.9
		c4.4,0,6.5-1.8,6.5-5.6h9.4C304.3,60.2,296.6,63.6,287.9,63.6z"/>
</g>
</svg>
